# Blender v2.93.5 OBJ File: ''
# www.blender.org
mtllib arrow.mtl
o Cube_Cube.001
v -1.000000 -0.125000 0.125000
v -1.000000 0.125000 0.125000
v -1.000000 0.125000 -0.125000
v -1.000000 -0.125000 -0.125000
v 1.000000 0.125000 -0.125000
v 1.000000 -0.125000 -0.125000
v 1.000000 0.125000 0.125000
v 1.000000 -0.125000 0.125000
vt 0.375000 0.000000
vt 0.625000 0.000000
vt 0.625000 0.250000
vt 0.375000 0.250000
vt 0.625000 0.500000
vt 0.375000 0.500000
vt 0.625000 0.750000
vt 0.375000 0.750000
vt 0.625000 1.000000
vt 0.375000 1.000000
vt 0.125000 0.500000
vt 0.125000 0.750000
vt 0.875000 0.500000
vt 0.875000 0.750000
vn -1.0000 -0.0000 0.0000
vn 0.0000 0.0000 -1.0000
vn 1.0000 0.0000 0.0000
vn 0.0000 -0.0000 1.0000
vn 0.0000 -1.0000 -0.0000
vn 0.0000 1.0000 0.0000
g Cube_Cube.001_Cube_Cube.001_Material.001
usemtl Material.001
s 1
f 1/1/1 2/2/1 3/3/1 4/4/1
f 4/4/2 3/3/2 5/5/2 6/6/2
f 6/6/3 5/5/3 7/7/3 8/8/3
f 8/8/4 7/7/4 2/9/4 1/10/4
f 4/11/5 6/6/5 8/8/5 1/12/5
f 5/5/6 3/13/6 2/14/6 7/7/6
o Cone
v 0.991912 0.212132 -0.212132
v 0.991912 -0.212132 -0.212132
v 0.991912 -0.212132 0.212132
v 0.991912 0.212132 0.212132
v 1.991912 0.000000 0.000000
vt 0.250000 0.490000
vt 0.250000 0.250000
vt 0.490000 0.250000
vt 0.250000 0.010000
vt 0.750000 0.490000
vt 0.990000 0.250000
vt 0.750000 0.010000
vt 0.510000 0.250000
vt 0.010000 0.250000
vn 0.2075 -0.0000 -0.9782
vn 0.2075 -0.9782 0.0000
vn -1.0000 -0.0000 -0.0000
vn 0.2075 0.0000 0.9782
vn 0.2075 0.9782 0.0000
g Cone_Cone_Material.001
usemtl Material.001
s off
f 9/15/7 13/16/7 10/17/7
f 10/17/8 13/16/8 11/18/8
f 9/19/9 10/20/9 11/21/9 12/22/9
f 11/18/10 13/16/10 12/23/10
f 12/23/11 13/16/11 9/15/11
